<svg width="25" height="24" viewBox="0 0 25 24" fill="none" xmlns="http://www.w3.org/2000/svg">
<g clip-path="url(#clip0_9_4)">
<path d="M22.8356 9.61884C22.171 9.61884 21.6338 10.1573 21.6338 10.8206V20.4357C21.6338 21.0979 21.0953 21.6375 20.432 21.6375H3.60563C2.94212 21.6375 2.40383 21.0979 2.40383 20.4357V3.60937C2.40383 2.94718 2.94212 2.40757 3.60563 2.40757H13.2207C13.8853 2.40757 14.4225 1.86906 14.4225 1.20576C14.4225 0.542251 13.8853 0.0037384 13.2207 0.0037384H3.60563C1.61774 0.0037384 0 1.62148 0 3.60937V20.4357C0 22.4236 1.61774 24.0414 3.60563 24.0414H20.432C22.4199 24.0414 24.0376 22.4236 24.0376 20.4357V10.8206C24.0376 10.156 23.5002 9.61884 22.8356 9.61884Z" fill="black"/>
<path d="M6.47671 13.3267C6.39264 13.4108 6.33608 13.5178 6.3121 13.6331L5.4624 17.8831C5.42279 18.08 5.48529 18.2832 5.62702 18.4262C5.74123 18.5404 5.89506 18.6016 6.05263 18.6016C6.09093 18.6016 6.13076 18.5981 6.17037 18.5897L10.4191 17.74C10.5368 17.7158 10.6437 17.6595 10.7267 17.5752L20.236 8.06596L15.9873 3.8175L6.47671 13.3267Z" fill="black"/>
<path d="M23.1732 0.878906C22.0016 -0.292969 20.0953 -0.292969 18.9246 0.878906L17.2613 2.5422L21.5099 6.79088L23.1732 5.12737C23.7406 4.56134 24.0531 3.8065 24.0531 3.00369C24.0531 2.20087 23.7406 1.44603 23.1732 0.878906Z" fill="black"/>
</g>
<defs>
<clipPath id="clip0_9_4">
<rect width="24.0423" height="24" fill="white"/>
</clipPath>
</defs>
</svg>
