<svg width="28" height="28" viewBox="0 0 28 28" fill="none" xmlns="http://www.w3.org/2000/svg">
<g clip-path="url(#clip0_6_4)">
<path d="M19.8334 20.9913V27.9913H24.5C26.433 27.9913 28 26.4243 28 24.4913V13.8502C28.0003 13.2441 27.7647 12.6616 27.3431 12.2262L17.4289 1.50796C15.6795 -0.384777 12.727 -0.500988 10.8343 1.24836C10.7444 1.33148 10.6578 1.41805 10.5747 1.50796L0.677852 12.2227C0.243524 12.6599 -0.00016398 13.2513 8.27875e-08 13.8677V24.4913C8.27875e-08 26.4243 1.56702 27.9913 3.5 27.9913H8.16665V20.9913C8.18847 17.81 10.757 15.2122 13.8581 15.1373C17.063 15.06 19.8089 17.7021 19.8334 20.9913Z" fill="white"/>
</g>
<defs>
<clipPath id="clip0_6_4">
<rect width="28" height="28" fill="white"/>
</clipPath>
</defs>
</svg>
